<svg xmlns="http://www.w3.org/2000/svg" width="107" height="81" fill="none">
  <g clip-path="url(#a)">
    <path fill="white" d="M0 .5h106.667v80H0z"/>
    <path fill="#222226" d="M72.31 35.134H11.016V11.598H72.31v23.536Zm-59.968-1.337h58.642V12.933H12.342v20.864Z"/>
    <path fill="#222226" d="M89.361 58.141H5.506V6.048H89.36V58.14Zm-82.53-1.337H88.04V7.384H6.832v49.42Z"/>
    <path fill="#222226" d="M106.667 80.5H0V.497h106.667V80.5ZM1.321 79.163h104.02V1.833H1.321v77.33Z"/>
    <path fill="#222226" fill-rule="evenodd" d="M24.496 23.654c0-2.366-1.44-3.485-3.527-3.485H19.65v6.97h1.318c2.087 0 3.527-1.12 3.527-3.485Zm-6.328-4.84h2.772c2.926 0 5.067 1.673 5.067 4.84s-2.141 4.84-5.067 4.84h-2.772v-9.68ZM35.939 25.05c0 2.337-1.579 3.639-3.749 3.639s-3.747-1.301-3.747-3.638v-6.238h1.482v6.194a2.176 2.176 0 0 0 .609 1.68 2.14 2.14 0 0 0 1.656.642 2.127 2.127 0 0 0 1.658-.64 2.163 2.163 0 0 0 .61-1.682v-6.193h1.481v6.237ZM37.937 18.814h7.412v1.358h-2.967v8.323h-1.48v-8.323h-2.967l.002-1.358ZM55.627 26.143c-1 1.646-2.128 2.545-4.2 2.545-2.733 0-4.763-2.075-4.763-5.034a4.883 4.883 0 0 1 1.35-3.557 4.773 4.773 0 0 1 3.483-1.476 4.32 4.32 0 0 1 2.425.63 4.371 4.371 0 0 1 1.68 1.874l-1.18.857c-.687-1.34-1.635-2.005-2.951-2.005-1.813 0-3.296 1.549-3.296 3.68 0 2.101 1.385 3.677 3.282 3.677 1.29 0 2.305-.622 3.033-2.005l1.137.814ZM58.092 18.814h1.481v4.066h4.475v-4.066h1.484v9.68h-1.484v-4.26h-4.475v4.26h-1.481v-9.68ZM19.113 46.103c0-2.366-1.44-3.486-3.527-3.486h-1.318v6.971h1.318c2.087 0 3.527-1.12 3.527-3.485Zm-6.328-4.84h2.772c2.925 0 5.067 1.674 5.067 4.84s-2.142 4.84-5.067 4.84h-2.772v-9.68ZM25.463 50.942h1.481v-9.68h-1.481v9.68ZM39.43 49.449a3.248 3.248 0 0 1-1.257 1.276c-.53.298-1.13.44-1.736.41-2.705 0-4.683-2.115-4.683-5.033a4.927 4.927 0 0 1 1.368-3.549c.452-.47.993-.842 1.59-1.097a4.819 4.819 0 0 1 1.888-.388 4.452 4.452 0 0 1 2.38.596 4.501 4.501 0 0 1 1.713 1.77l-1.128.788a3.259 3.259 0 0 0-1.23-1.355 3.221 3.221 0 0 0-1.762-.47c-1.799 0-3.308 1.452-3.308 3.706 0 2.199 1.304 3.678 3.198 3.678 1.743 0 2.622-1.12 2.829-2.626H36.05v-1.233h4.721v5.02h-.987l-.356-1.493ZM45.918 50.942h1.481v-9.68h-1.481v9.68ZM51.693 41.262h7.411v1.354h-2.966v8.326h-1.48v-8.326H51.69l.002-1.354ZM65.676 43.89l-1.168 3.057h2.993l-1.165-3.057c-.193-.498-.33-.927-.33-.927s-.136.429-.33.927Zm-.412-2.627h1.485l3.842 9.68h-1.564l-1.032-2.696h-3.98l-1.032 2.696h-1.565l3.846-9.68ZM74.834 41.262h1.482v8.352h4.819v1.328h-6.301v-9.68ZM12.06 66.853l-1.169 3.058h2.993l-1.168-3.058c-.191-.498-.33-.926-.33-.926s-.136.428-.327.926Zm-.414-2.626h1.483l3.844 9.68h-1.566l-1.031-2.696h-3.98l-1.03 2.696H7.8l3.845-9.68ZM28.318 72.413a3.247 3.247 0 0 1-1.257 1.276c-.529.298-1.13.44-1.736.41-2.705 0-4.682-2.115-4.682-5.033a4.927 4.927 0 0 1 1.368-3.549 4.85 4.85 0 0 1 1.59-1.097 4.818 4.818 0 0 1 1.887-.388 4.452 4.452 0 0 1 2.38.596 4.5 4.5 0 0 1 1.713 1.77l-1.127.787a3.259 3.259 0 0 0-1.231-1.355 3.222 3.222 0 0 0-1.762-.47c-1.798 0-3.307 1.452-3.307 3.706 0 2.199 1.304 3.677 3.198 3.677 1.743 0 2.622-1.12 2.829-2.623H24.94v-1.234h4.722v5.02h-.987l-.357-1.493ZM35.12 64.227h6.313v1.327H36.6v2.683h4.45v1.328H36.6v3.014h4.874v1.328H35.12v-9.68ZM46.678 64.227h1.509l4.312 6.746c.151.236.29.48.413.733v-7.48h1.424v9.681h-1.509l-4.31-6.746a7.377 7.377 0 0 1-.412-.733v7.48h-1.427v-9.681ZM68.44 71.556c-1.001 1.645-2.128 2.544-4.2 2.544-2.733 0-4.764-2.075-4.764-5.033a4.882 4.882 0 0 1 1.35-3.558 4.774 4.774 0 0 1 3.483-1.476 4.32 4.32 0 0 1 2.424.629 4.37 4.37 0 0 1 1.679 1.874l-1.176.858c-.687-1.341-1.635-2.006-2.952-2.006-1.812 0-3.296 1.55-3.296 3.68 0 2.102 1.386 3.678 3.282 3.678 1.29 0 2.305-.623 3.033-2.006l1.137.816ZM73.469 73.907h1.48v-9.68h-1.48v9.68ZM80.545 64.227h6.314v1.327h-4.833v2.683h4.449v1.328h-4.449v3.014H86.9v1.328h-6.355v-9.68ZM95.722 68.292c2.07.401 3.102 1.273 3.102 2.89 0 1.563-1.345 2.921-3.514 2.921-2.291 0-3.623-1.328-3.939-3.056l1.304-.677c.273 1.59 1.165 2.433 2.622 2.433 1.277 0 2.044-.705 2.044-1.562 0-1.01-.794-1.454-2.442-1.77-1.784-.347-3.088-1.218-3.088-2.85 0-1.534 1.358-2.586 3.293-2.586a3.505 3.505 0 0 1 2.182.597 3.552 3.552 0 0 1 1.373 1.81l-1.178.693a2.39 2.39 0 0 0-.879-1.326 2.356 2.356 0 0 0-1.51-.472c-1.016 0-1.88.43-1.88 1.26 0 .87.823 1.368 2.512 1.7" clip-rule="evenodd"/>
    <path fill="#222226" fill-rule="evenodd" d="M24.496 23.654c0-2.366-1.44-3.485-3.527-3.485H19.65v6.97h1.318c2.087 0 3.527-1.12 3.527-3.485Zm-6.328-4.84h2.772c2.926 0 5.067 1.673 5.067 4.84s-2.141 4.84-5.067 4.84h-2.772v-9.68ZM35.939 25.05c0 2.337-1.579 3.639-3.749 3.639s-3.747-1.301-3.747-3.638v-6.238h1.482v6.194a2.176 2.176 0 0 0 .609 1.68 2.14 2.14 0 0 0 1.656.642 2.127 2.127 0 0 0 1.658-.64 2.162 2.162 0 0 0 .61-1.682v-6.193h1.481v6.237ZM37.937 18.814h7.412v1.357h-2.967v8.323h-1.48v-8.323h-2.967l.002-1.357ZM55.627 26.143c-1 1.646-2.128 2.545-4.2 2.545-2.733 0-4.763-2.075-4.763-5.034a4.883 4.883 0 0 1 1.35-3.557 4.773 4.773 0 0 1 3.483-1.476 4.32 4.32 0 0 1 2.425.63 4.371 4.371 0 0 1 1.68 1.874l-1.18.857c-.687-1.34-1.635-2.005-2.951-2.005-1.813 0-3.296 1.549-3.296 3.68 0 2.101 1.385 3.677 3.282 3.677 1.29 0 2.305-.622 3.033-2.005l1.137.814ZM58.092 18.814h1.481v4.065h4.475v-4.066h1.484v9.681h-1.484v-4.26h-4.475v4.26h-1.481v-9.68ZM19.113 46.103c0-2.366-1.44-3.486-3.527-3.486h-1.318v6.971h1.318c2.087 0 3.527-1.12 3.527-3.485Zm-6.328-4.84h2.772c2.925 0 5.067 1.674 5.067 4.84s-2.142 4.84-5.067 4.84h-2.772v-9.68ZM25.463 50.942h1.481v-9.68h-1.481v9.68ZM39.43 49.449a3.248 3.248 0 0 1-1.257 1.276c-.53.298-1.13.44-1.736.41-2.705 0-4.683-2.115-4.683-5.033a4.927 4.927 0 0 1 1.368-3.549c.452-.47.993-.842 1.59-1.097a4.819 4.819 0 0 1 1.888-.388 4.452 4.452 0 0 1 2.38.596 4.501 4.501 0 0 1 1.713 1.77l-1.128.788a3.259 3.259 0 0 0-1.23-1.355 3.221 3.221 0 0 0-1.762-.47c-1.799 0-3.308 1.452-3.308 3.706 0 2.199 1.304 3.678 3.198 3.678 1.743 0 2.622-1.12 2.829-2.626H36.05v-1.233h4.721v5.02h-.987l-.356-1.493ZM45.918 50.942h1.481v-9.68h-1.481v9.68ZM51.693 41.262h7.411v1.354h-2.966v8.326h-1.48v-8.326H51.69l.002-1.354ZM65.676 43.89l-1.168 3.057h2.993l-1.165-3.057c-.193-.498-.33-.927-.33-.927s-.136.429-.33.927Zm-.412-2.627h1.485l3.842 9.68h-1.564l-1.032-2.696h-3.98l-1.032 2.696h-1.565l3.846-9.68ZM74.834 41.262h1.482v8.352h4.819v1.328h-6.301v-9.68ZM12.06 66.853l-1.169 3.058h2.993l-1.168-3.058c-.191-.498-.33-.926-.33-.926s-.136.428-.327.926Zm-.414-2.626h1.483l3.844 9.68h-1.566l-1.031-2.696h-3.98l-1.03 2.696H7.8l3.845-9.68ZM28.318 72.413a3.247 3.247 0 0 1-1.257 1.276c-.529.298-1.13.44-1.736.41-2.705 0-4.682-2.115-4.682-5.033a4.927 4.927 0 0 1 1.368-3.549 4.85 4.85 0 0 1 1.59-1.097 4.818 4.818 0 0 1 1.887-.388 4.452 4.452 0 0 1 2.38.596 4.5 4.5 0 0 1 1.713 1.77l-1.127.787a3.259 3.259 0 0 0-1.231-1.355 3.222 3.222 0 0 0-1.762-.47c-1.798 0-3.307 1.452-3.307 3.706 0 2.199 1.304 3.677 3.198 3.677 1.743 0 2.622-1.12 2.829-2.623H24.94v-1.234h4.722v5.02h-.987l-.357-1.493ZM35.12 64.227h6.313v1.327H36.6v2.683h4.45v1.328H36.6v3.014h4.874v1.328H35.12v-9.68ZM46.678 64.227h1.509l4.312 6.746c.151.236.29.48.413.733v-7.48h1.424v9.681h-1.509l-4.31-6.746a7.377 7.377 0 0 1-.412-.733v7.48h-1.427v-9.681ZM68.44 71.556c-1.001 1.645-2.128 2.544-4.2 2.544-2.733 0-4.764-2.075-4.764-5.033a4.882 4.882 0 0 1 1.35-3.558 4.774 4.774 0 0 1 3.483-1.476 4.32 4.32 0 0 1 2.424.629 4.37 4.37 0 0 1 1.679 1.874l-1.176.858c-.687-1.341-1.635-2.006-2.952-2.006-1.812 0-3.296 1.55-3.296 3.68 0 2.102 1.386 3.678 3.282 3.678 1.29 0 2.305-.623 3.033-2.006l1.137.816ZM73.469 73.907h1.48v-9.68h-1.48v9.68ZM80.545 64.227h6.314v1.327h-4.833v2.683h4.449v1.328h-4.449v3.014H86.9v1.328h-6.355v-9.68Z" clip-rule="evenodd"/>
  </g>
  <defs>
    <clipPath id="a">
      <path fill="white" d="M0 .5h106.667v80H0z"/>
    </clipPath>
  </defs>
</svg>